<svg data-v-fde0c5aa="" xmlns="http://www.w3.org/2000/svg" viewBox="0 0 300 300" class="iconAbove"><!----><defs data-v-fde0c5aa=""><!----></defs><rect data-v-fde0c5aa="" fill="#F2F6EF" x="0" y="0" width="300px" height="300px" class="logo-background-square"></rect><defs data-v-fde0c5aa=""><!----></defs><g data-v-fde0c5aa="" id="803556b4-fb99-4de5-bc68-d126f26e6bfb" fill="#fff" transform="matrix(2.745802241474177,0,0,2.745802241474177,18.297602597193034,174.5686982639964)"><path d="M8.13 8.89L10.93 8.89L10.93 8.89Q10.87 8.91 10.58 9.14L10.58 9.14L10.58 9.14Q10.28 9.37 10.08 9.54L10.08 9.54L10.08 11.92L10.08 11.92Q9.29 12.93 7.85 13.63L7.85 13.63L7.85 13.63Q6.41 14.34 5.24 14.34L5.24 14.34L5.24 14.34Q4.08 14.34 3.24 14.00L3.24 14.00L3.24 14.00Q2.41 13.65 1.82 13.04L1.82 13.04L1.82 13.04Q0.62 11.79 0.62 9.73L0.62 9.73L0.62 9.73Q0.62 8.21 1.18 7.26L1.18 7.26L1.18 7.26Q2.00 5.81 3.69 4.83L3.69 4.83L3.69 4.83Q5.38 3.85 7.06 3.85L7.06 3.85L7.06 3.85Q8.22 3.85 9.39 4.20L9.39 4.20L9.39 4.20Q9.86 4.34 10.17 4.54L10.17 4.54L10.17 4.54Q10.23 4.59 10.23 4.64L10.23 4.64L10.23 4.64Q10.23 4.70 10.12 4.80L10.12 4.80L10.12 4.80Q10.01 4.89 9.85 5.02L9.85 5.02L9.85 5.02Q9.68 5.15 9.48 5.28L9.48 5.28L9.48 5.28Q9.28 5.42 9.11 5.54L9.11 5.54L9.11 5.54Q8.74 5.78 8.63 5.83L8.63 5.83L8.63 5.83Q8.63 5.81 8.67 5.78L8.67 5.78L8.67 5.78Q8.72 5.74 8.76 5.70L8.76 5.70L8.76 5.70Q8.88 5.59 8.88 5.52L8.88 5.52L8.88 5.52Q8.88 5.26 7.94 5.02L7.94 5.02L7.94 5.02Q6.95 4.77 5.82 4.77L5.82 4.77L5.82 4.77Q4.69 4.77 3.99 5.04L3.99 5.04L3.99 5.04Q3.28 5.32 2.83 5.84L2.83 5.84L2.83 5.84Q1.96 6.85 1.96 8.85L1.96 8.85L1.96 8.85Q1.96 10.78 3.11 12.06L3.11 12.06L3.11 12.06Q4.31 13.40 6.21 13.40L6.21 13.40L6.21 13.40Q7.36 13.40 8.24 13.10L8.24 13.10L8.24 13.10Q8.57 12.98 8.77 12.80L8.77 12.80L8.77 9.83L6.81 9.83L7.07 9.61L7.07 9.61Q7.95 8.89 8.13 8.89L8.13 8.89ZM17.82 7.44L17.82 7.44L17.82 7.44Q16.99 8.65 15.82 8.65L15.82 8.65L15.82 8.65Q15.63 8.65 15.33 8.50L15.33 8.50L15.33 8.50Q14.75 8.22 14.55 8.22L14.55 8.22L14.55 8.22Q14.35 8.22 14.23 8.35L14.23 8.35L14.23 8.35Q14.10 8.48 14.02 8.71L14.02 8.71L14.02 8.71Q13.84 9.21 13.84 10.02L13.84 10.02L13.84 12.64L13.84 12.64Q13.84 13.08 14.10 13.23L14.10 13.23L14.10 13.23Q14.20 13.30 14.34 13.30L14.34 13.30L14.34 13.30Q14.49 13.30 14.64 13.23L14.64 13.23L14.64 13.23Q14.51 13.35 14.38 13.52L14.38 13.52L14.38 13.52Q14.25 13.69 14.08 13.84L14.08 13.84L14.08 13.84Q13.69 14.22 13.16 14.22L13.16 14.22L13.16 14.22Q12.89 14.22 12.69 14.04L12.69 14.04L12.69 14.04Q12.50 13.87 12.50 13.62L12.50 13.62L12.50 9.68L12.50 9.68Q12.50 9.44 12.51 9.20L12.51 9.20L12.51 9.20Q12.52 8.96 12.46 8.76L12.46 8.76L12.46 8.76Q12.33 8.33 11.72 8.33L11.72 8.33L11.72 8.33Q11.42 8.33 11.13 8.44L11.13 8.44L11.13 8.44Q11.31 8.38 11.59 8.12L11.59 8.12L11.59 8.12Q12.13 7.63 12.35 7.55L12.35 7.55L12.35 7.55Q12.78 7.39 13.05 7.39L13.05 7.39L13.05 7.39Q13.32 7.39 13.47 7.47L13.47 7.47L13.47 7.47Q13.62 7.55 13.70 7.68L13.70 7.68L13.70 7.68Q13.84 7.91 13.84 8.38L13.84 8.38L13.84 8.38Q14.03 8.23 14.27 8.04L14.27 8.04L14.27 8.04Q14.51 7.85 14.76 7.68L14.76 7.68L14.76 7.68Q15.37 7.28 15.82 7.28L15.82 7.28L15.82 7.28Q16.08 7.28 16.38 7.43L16.38 7.43L16.38 7.43Q16.67 7.58 16.82 7.65L16.82 7.65L16.82 7.65Q16.96 7.72 17.08 7.72L17.08 7.72L17.08 7.72Q17.36 7.72 17.82 7.44ZM22.48 12.82L22.48 12.82L22.48 12.82Q21.54 13.86 20.15 14.12L20.15 14.12L20.15 14.12Q19.83 14.18 19.36 14.18L19.36 14.18L19.36 14.18Q18.89 14.18 18.47 13.91L18.47 13.91L18.47 13.91Q18.05 13.65 17.79 13.23L17.79 13.23L17.79 13.23Q17.28 12.43 17.28 11.27L17.28 11.27L17.28 11.27Q17.28 10.50 17.87 9.57L17.87 9.57L17.87 9.57Q18.44 8.65 19.27 8.04L19.27 8.04L19.27 8.04Q20.16 7.38 20.95 7.38L20.95 7.38L20.95 7.38Q21.36 7.38 21.64 7.68L21.64 7.68L21.64 7.68Q21.90 7.98 21.90 8.35L21.90 8.35L21.90 8.35Q21.90 8.73 21.74 9.05L21.74 9.05L21.74 9.05Q21.57 9.37 21.31 9.67L21.31 9.67L21.31 9.67Q21.05 9.97 20.71 10.24L20.71 10.24L20.71 10.24Q20.37 10.52 20.02 10.76L20.02 10.76L20.02 10.76Q19.52 11.10 18.76 11.53L18.76 11.53L18.76 11.53Q18.98 12.36 19.53 12.81L19.53 12.81L19.53 12.81Q20.08 13.25 20.96 13.25L20.96 13.25L20.96 13.25Q21.70 13.25 22.48 12.82ZM20.41 10.08L20.41 10.08L20.41 10.08Q20.60 9.78 20.60 9.50L20.60 9.50L20.60 9.50Q20.60 9.22 20.54 9.03L20.54 9.03L20.54 9.03Q20.47 8.83 20.36 8.68L20.36 8.68L20.36 8.68Q20.09 8.34 19.67 8.34L19.67 8.34L19.67 8.34Q18.63 8.34 18.63 10.46L18.63 10.46L18.63 10.46Q18.63 10.83 18.69 11.20L18.69 11.20L18.69 11.20Q19.89 10.87 20.41 10.08ZM28.45 12.82L28.45 12.82L28.45 12.82Q27.51 13.86 26.13 14.12L26.13 14.12L26.13 14.12Q25.81 14.18 25.33 14.18L25.33 14.18L25.33 14.18Q24.86 14.18 24.45 13.91L24.45 13.91L24.45 13.91Q24.03 13.65 23.76 13.23L23.76 13.23L23.76 13.23Q23.26 12.43 23.26 11.27L23.26 11.27L23.26 11.27Q23.26 10.50 23.84 9.57L23.84 9.57L23.84 9.57Q24.42 8.65 25.25 8.04L25.25 8.04L25.25 8.04Q26.13 7.38 26.93 7.38L26.93 7.38L26.93 7.38Q27.34 7.38 27.62 7.68L27.62 7.68L27.62 7.68Q27.88 7.98 27.88 8.35L27.88 8.35L27.88 8.35Q27.88 8.73 27.71 9.05L27.71 9.05L27.71 9.05Q27.55 9.37 27.29 9.67L27.29 9.67L27.29 9.67Q27.02 9.97 26.68 10.24L26.68 10.24L26.68 10.24Q26.35 10.52 25.99 10.76L25.99 10.76L25.99 10.76Q25.49 11.10 24.73 11.53L24.73 11.53L24.73 11.53Q24.95 12.36 25.50 12.81L25.50 12.81L25.50 12.81Q26.06 13.25 26.93 13.25L26.93 13.25L26.93 13.25Q27.67 13.25 28.45 12.82ZM26.39 10.08L26.39 10.08L26.39 10.08Q26.57 9.78 26.57 9.50L26.57 9.50L26.57 9.50Q26.57 9.22 26.51 9.03L26.51 9.03L26.51 9.03Q26.45 8.83 26.33 8.68L26.33 8.68L26.33 8.68Q26.07 8.34 25.64 8.34L25.64 8.34L25.64 8.34Q24.60 8.34 24.60 10.46L24.60 10.46L24.60 10.46Q24.60 10.83 24.66 11.20L24.66 11.20L24.66 11.20Q25.87 10.87 26.39 10.08ZM30.02 13.62L30.02 13.62L30.03 9.22L30.03 9.22Q30.03 8.76 29.91 8.61L29.91 8.61L29.91 8.61Q29.70 8.33 29.32 8.33L29.32 8.33L29.32 8.33Q28.94 8.33 28.65 8.44L28.65 8.44L28.65 8.44Q28.83 8.37 29.11 8.12L29.11 8.12L29.11 8.12Q29.64 7.64 29.86 7.55L29.86 7.55L29.86 7.55Q30.27 7.39 30.58 7.39L30.58 7.39L30.58 7.39Q30.89 7.39 31.05 7.49L31.05 7.49L31.05 7.49Q31.20 7.59 31.27 7.77L31.27 7.77L31.27 7.77Q31.36 7.98 31.36 8.57L31.36 8.57L31.36 8.57Q32.63 7.44 33.75 7.44L33.75 7.44L33.75 7.44Q34.36 7.44 34.81 7.83L34.81 7.83L34.81 7.83Q35.28 8.24 35.28 8.83L35.28 8.83L35.28 12.20L35.28 12.20Q35.28 12.71 35.39 12.90L35.39 12.90L35.39 12.90Q35.59 13.26 36.07 13.26L36.07 13.26L36.07 13.26Q36.35 13.26 36.59 13.16L36.59 13.16L36.59 13.16Q35.98 13.69 35.75 13.84L35.75 13.84L35.75 13.84Q35.22 14.18 34.82 14.18L34.82 14.18L34.82 14.18Q34.42 14.18 34.25 14.04L34.25 14.04L34.25 14.04Q34.08 13.90 34.02 13.68L34.02 13.68L34.02 13.68Q33.94 13.44 33.94 12.70L33.94 12.70L33.94 10.14L33.94 10.14Q33.94 8.92 33.14 8.53L33.14 8.53L33.14 8.53Q32.85 8.39 32.45 8.39L32.45 8.39L32.45 8.39Q31.46 8.39 31.38 9.86L31.38 9.86L31.38 9.86Q31.36 10.23 31.36 10.53L31.36 10.53L31.36 12.64L31.36 12.64Q31.36 13.08 31.62 13.23L31.62 13.23L31.62 13.23Q31.72 13.30 31.86 13.30L31.86 13.30L31.86 13.30Q32.01 13.30 32.16 13.23L32.16 13.23L32.16 13.23Q32.02 13.35 31.82 13.52L31.82 13.52L31.82 13.52Q31.62 13.69 31.40 13.85L31.40 13.85L31.40 13.85Q30.86 14.22 30.54 14.22L30.54 14.22L30.54 14.22Q30.02 14.22 30.02 13.62ZM41.62 5.17L40.34 5.17L40.34 5.17Q41.47 4.25 41.67 4.25L41.67 4.25L47.31 4.25L47.31 4.25Q47.24 4.25 46.87 4.57L46.87 4.57L46.87 4.57Q46.50 4.89 46.30 5.03L46.30 5.03L46.30 5.03Q46.11 5.17 45.99 5.17L45.99 5.17L42.95 5.17L42.95 8.49L46.27 8.49L46.27 8.49Q46.19 8.50 46.02 8.64L46.02 8.64L46.02 8.64Q45.85 8.79 45.64 8.96L45.64 8.96L45.64 8.96Q45.10 9.42 44.93 9.42L44.93 9.42L42.95 9.42L42.95 11.65L42.95 11.65Q42.95 12.41 42.72 12.89L42.72 12.89L42.72 12.89Q42.63 13.08 42.49 13.15L42.49 13.15L46.29 13.15L46.29 13.15Q46.68 13.15 47.09 12.97L47.09 12.97L47.52 12.80L47.52 12.80Q47.17 13.21 46.03 13.82L46.03 13.82L46.03 13.82Q45.53 14.08 45.36 14.08L45.36 14.08L41.00 14.08L41.00 14.08Q41.62 13.25 41.62 12.45L41.62 12.45L41.62 9.42L40.66 9.42L40.66 9.42Q41.25 8.94 41.62 8.67L41.62 8.67L41.62 5.17ZM53.89 8.22L53.74 8.22L53.74 8.22Q52.92 9.37 52.06 10.40L52.06 10.40L52.06 10.40Q52.48 11.04 52.89 11.70L52.89 11.70L52.89 11.70Q53.31 12.36 53.60 12.71L53.60 12.71L53.60 12.71Q53.89 13.07 54.06 13.19L54.06 13.19L54.06 13.19Q54.22 13.31 54.35 13.31L54.35 13.31L54.35 13.31Q54.58 13.31 54.85 13.10L54.85 13.10L54.85 13.10Q54.63 13.60 54.09 13.92L54.09 13.92L54.09 13.92Q53.60 14.21 53.03 14.21L53.03 14.21L53.03 14.21Q52.73 14.21 52.51 13.93L52.51 13.93L52.51 13.93Q52.08 13.41 51.71 12.83L51.71 12.83L51.71 12.83Q51.34 12.26 50.97 11.69L50.97 11.69L50.97 11.69Q50.28 12.47 49.38 13.15L49.38 13.15L50.54 13.15L50.54 13.15Q50.43 13.18 50.11 13.47L50.11 13.47L50.11 13.47Q49.79 13.75 49.66 13.85L49.66 13.85L49.66 13.85Q49.37 14.08 49.22 14.08L49.22 14.08L47.63 14.08L47.63 14.08Q47.72 14.02 47.81 13.96L47.81 13.96L47.81 13.96Q47.90 13.90 48.00 13.83L48.00 13.83L48.00 13.83Q48.09 13.75 48.20 13.64L48.20 13.64L48.20 13.64Q48.32 13.52 48.43 13.41L48.43 13.41L48.43 13.41Q48.71 13.15 48.96 13.15L48.96 13.15L48.96 13.15Q49.06 13.15 49.55 12.63L49.55 12.63L49.55 12.63Q50.03 12.10 50.22 11.90L50.22 11.90L50.22 11.90Q50.40 11.70 50.54 11.54L50.54 11.54L50.54 11.54Q50.68 11.38 50.73 11.32L50.73 11.32L50.73 11.32Q50.40 10.81 50.08 10.31L50.08 10.31L50.08 10.31Q49.75 9.82 49.54 9.50L49.54 9.50L49.54 9.50Q49.33 9.17 49.22 8.97L49.22 8.97L49.22 8.97Q49.11 8.77 48.97 8.59L48.97 8.59L48.97 8.59Q48.62 8.13 48.32 8.13L48.32 8.13L48.32 8.13Q48.11 8.13 47.93 8.26L47.93 8.26L47.93 8.26Q49.31 7.19 49.71 7.19L49.71 7.19L49.71 7.19Q49.89 7.19 50.08 7.43L50.08 7.43L50.08 7.43Q50.28 7.68 50.46 7.94L50.46 7.94L50.46 7.94Q50.65 8.20 50.85 8.51L50.85 8.51L50.85 8.51Q51.05 8.82 51.24 9.11L51.24 9.11L51.24 9.11Q51.42 9.39 51.57 9.63L51.57 9.63L51.57 9.63Q51.71 9.86 51.79 9.98L51.79 9.98L51.79 9.98Q52.48 9.07 53.05 8.22L53.05 8.22L52.06 8.22L52.06 8.22Q52.77 7.62 53.05 7.45L53.05 7.45L53.05 7.45Q53.34 7.29 53.39 7.29L53.39 7.29L55.22 7.29L55.22 7.29Q54.53 7.89 54.23 8.06L54.23 8.06L54.23 8.06Q53.94 8.22 53.89 8.22L53.89 8.22ZM59.70 8.79L59.70 8.79L59.70 8.79Q59.83 8.65 59.83 8.59L59.83 8.59L59.83 8.59Q59.83 8.52 59.74 8.46L59.74 8.46L59.74 8.46Q59.65 8.39 59.50 8.34L59.50 8.34L59.50 8.34Q59.36 8.29 59.18 8.25L59.18 8.25L59.18 8.25Q59.00 8.20 58.84 8.18L58.84 8.18L58.84 8.18Q58.49 8.11 58.17 8.11L58.17 8.11L58.17 8.11Q57.85 8.11 57.51 8.30L57.51 8.30L57.51 8.30Q57.18 8.50 56.98 8.82L56.98 8.82L56.98 8.82Q56.64 9.39 56.64 10.21L56.64 10.21L56.64 10.21Q56.64 11.03 56.81 11.56L56.81 11.56L56.81 11.56Q56.99 12.09 57.33 12.47L57.33 12.47L57.33 12.47Q58.05 13.26 59.36 13.26L59.36 13.26L59.36 13.26Q60.19 13.26 60.93 12.85L60.93 12.85L60.93 12.85Q60.07 13.78 58.75 14.10L58.75 14.10L58.75 14.10Q58.33 14.19 57.83 14.19L57.83 14.19L57.83 14.19Q57.32 14.19 56.83 13.98L56.83 13.98L56.83 13.98Q56.33 13.77 55.99 13.39L55.99 13.39L55.99 13.39Q55.29 12.62 55.29 11.39L55.29 11.39L55.29 11.39Q55.29 10.39 55.98 9.38L55.98 9.38L55.98 9.38Q57.00 7.90 58.67 7.37L58.67 7.37L58.67 7.37Q59.19 7.20 59.61 7.20L59.61 7.20L59.61 7.20Q60.61 7.20 61.10 7.57L61.10 7.57L61.10 7.57Q61.15 7.61 61.15 7.68L61.15 7.68L61.15 7.68Q61.15 7.92 60.16 8.57L60.16 8.57L60.16 8.57Q59.80 8.79 59.70 8.79ZM63.64 10.53L63.64 12.59L63.64 12.59Q63.64 13.28 64.04 13.28L64.04 13.28L64.04 13.28Q64.18 13.28 64.46 13.16L64.46 13.16L64.46 13.16Q64.19 13.75 63.66 14.05L63.66 14.05L63.66 14.05Q63.38 14.21 63.08 14.19L63.08 14.19L63.08 14.19Q62.77 14.18 62.63 14.03L62.63 14.03L62.63 14.03Q62.50 13.88 62.43 13.67L62.43 13.67L62.43 13.67Q62.32 13.33 62.32 12.80L62.32 12.80L62.32 5.00L62.32 5.00Q62.32 4.27 62.06 4.03L62.06 4.03L62.06 4.03Q61.95 3.92 61.77 3.92L61.77 3.92L61.77 3.92Q61.48 3.92 61.13 4.02L61.13 4.02L61.13 4.02Q61.96 3.36 63.64 2.30L63.64 2.30L63.64 8.57L63.64 8.57Q64.50 7.82 65.39 7.55L65.39 7.55L65.39 7.55Q65.72 7.44 66.03 7.44L66.03 7.44L66.03 7.44Q66.34 7.44 66.61 7.54L66.61 7.54L66.61 7.54Q66.89 7.64 67.11 7.82L67.11 7.82L67.11 7.82Q67.59 8.22 67.59 8.83L67.59 8.83L67.59 12.30L67.59 12.30Q67.59 13.21 68.03 13.30L68.03 13.30L68.03 13.30Q68.15 13.33 68.29 13.33L68.29 13.33L68.29 13.33Q68.50 13.33 68.89 13.16L68.89 13.16L68.89 13.16Q68.32 13.88 67.57 14.11L67.57 14.11L67.57 14.11Q67.31 14.19 67.01 14.19L67.01 14.19L67.01 14.19Q66.71 14.19 66.55 14.05L66.55 14.05L66.55 14.05Q66.38 13.90 66.32 13.69L66.32 13.69L66.32 13.69Q66.26 13.47 66.26 13.21L66.26 13.21L66.26 10.14L66.26 10.14Q66.26 9.10 65.94 8.74L65.94 8.74L65.94 8.74Q65.65 8.39 64.85 8.39L64.85 8.39L64.85 8.39Q63.79 8.39 63.67 9.84L63.67 9.84L63.67 9.84Q63.64 10.21 63.64 10.53L63.64 10.53ZM74.01 9.28L74.01 12.06L74.00 12.54L74.00 12.54Q74.00 13.07 74.30 13.21L74.30 13.21L74.30 13.21Q74.42 13.27 74.57 13.27L74.57 13.27L74.57 13.27Q74.81 13.27 75.06 13.16L75.06 13.16L75.06 13.16Q74.80 13.27 74.61 13.45L74.61 13.45L74.61 13.45Q74.42 13.62 74.22 13.79L74.22 13.79L74.22 13.79Q73.73 14.21 73.23 14.21L73.23 14.21L73.23 14.21Q72.73 14.21 72.69 13.63L72.69 13.63L72.69 13.63Q72.68 13.48 72.68 13.33L72.68 13.33L72.68 13.33Q71.45 14.18 70.42 14.18L70.42 14.18L70.42 14.18Q69.56 14.18 69.22 13.66L69.22 13.66L69.22 13.66Q69.10 13.47 69.10 13.13L69.10 13.13L69.10 13.13Q69.10 12.80 69.30 12.46L69.30 12.46L69.30 12.46Q69.51 12.12 69.82 11.84L69.82 11.84L69.82 11.84Q70.38 11.32 71.18 10.99L71.18 10.99L71.18 10.99Q71.76 10.73 72.69 10.70L72.69 10.70L72.69 10.40L72.69 10.40Q72.69 9.31 72.49 8.93L72.49 8.93L72.49 8.93Q72.29 8.54 71.98 8.36L71.98 8.36L71.98 8.36Q71.66 8.18 71.24 8.18L71.24 8.18L71.24 8.18Q70.52 8.18 69.97 8.46L69.97 8.46L69.97 8.46Q70.72 7.84 71.07 7.64L71.07 7.64L71.07 7.64Q71.79 7.24 72.38 7.24L72.38 7.24L72.38 7.24Q72.96 7.24 73.25 7.41L73.25 7.41L73.25 7.41Q73.55 7.58 73.72 7.86L73.72 7.86L73.72 7.86Q74.01 8.35 74.01 9.28L74.01 9.28ZM70.80 13.04L70.80 13.04L70.80 13.04Q70.96 13.16 71.18 13.21L71.18 13.21L71.18 13.21Q71.40 13.27 71.83 13.27L71.83 13.27L71.83 13.27Q72.26 13.27 72.69 13.06L72.69 13.06L72.69 11.63L71.58 11.63L71.58 11.63Q70.98 11.63 70.54 11.71L70.54 11.71L70.54 11.71Q70.45 12.00 70.45 12.27L70.45 12.27L70.45 12.27Q70.45 12.54 70.54 12.73L70.54 12.73L70.54 12.73Q70.64 12.92 70.80 13.04ZM76.52 13.62L76.52 13.62L76.53 9.22L76.53 9.22Q76.53 8.76 76.41 8.61L76.41 8.61L76.41 8.61Q76.19 8.33 75.82 8.33L75.82 8.33L75.82 8.33Q75.44 8.33 75.15 8.44L75.15 8.44L75.15 8.44Q75.33 8.37 75.61 8.12L75.61 8.12L75.61 8.12Q76.14 7.64 76.36 7.55L76.36 7.55L76.36 7.55Q76.77 7.39 77.08 7.39L77.08 7.39L77.08 7.39Q77.39 7.39 77.54 7.49L77.54 7.49L77.54 7.49Q77.70 7.59 77.77 7.77L77.77 7.77L77.77 7.77Q77.85 7.98 77.85 8.57L77.85 8.57L77.85 8.57Q79.13 7.44 80.25 7.44L80.25 7.44L80.25 7.44Q80.86 7.44 81.31 7.83L81.31 7.83L81.31 7.83Q81.78 8.24 81.78 8.83L81.78 8.83L81.78 12.20L81.78 12.20Q81.78 12.71 81.89 12.90L81.89 12.90L81.89 12.90Q82.09 13.26 82.57 13.26L82.57 13.26L82.57 13.26Q82.84 13.26 83.09 13.16L83.09 13.16L83.09 13.16Q82.48 13.69 82.25 13.84L82.25 13.84L82.25 13.84Q81.72 14.18 81.32 14.18L81.32 14.18L81.32 14.18Q80.92 14.18 80.75 14.04L80.75 14.04L80.75 14.04Q80.58 13.90 80.51 13.68L80.51 13.68L80.51 13.68Q80.44 13.44 80.44 12.70L80.44 12.70L80.44 10.14L80.44 10.14Q80.44 8.92 79.64 8.53L79.64 8.53L79.64 8.53Q79.35 8.39 78.95 8.39L78.95 8.39L78.95 8.39Q77.96 8.39 77.88 9.86L77.88 9.86L77.88 9.86Q77.85 10.23 77.85 10.53L77.85 10.53L77.85 12.64L77.85 12.64Q77.85 13.08 78.12 13.23L78.12 13.23L78.12 13.23Q78.22 13.30 78.36 13.30L78.36 13.30L78.36 13.30Q78.50 13.30 78.66 13.23L78.66 13.23L78.66 13.23Q78.52 13.35 78.32 13.52L78.32 13.52L78.32 13.52Q78.12 13.69 77.90 13.85L77.90 13.85L77.90 13.85Q77.36 14.22 77.04 14.22L77.04 14.22L77.04 14.22Q76.52 14.22 76.52 13.62ZM87.50 7.39L89.49 7.44L89.49 7.44Q89.86 7.44 90.09 7.29L90.09 7.29L90.09 7.29Q90.08 7.53 89.56 7.87L89.56 7.87L89.56 7.87Q89.13 8.16 88.82 8.23L88.82 8.23L88.82 8.23Q89.08 8.73 89.08 9.32L89.08 9.32L89.08 9.32Q89.08 9.91 88.85 10.36L88.85 10.36L88.85 10.36Q88.62 10.82 88.28 11.17L88.28 11.17L88.28 11.17Q87.93 11.52 87.53 11.78L87.53 11.78L87.53 11.78Q87.12 12.04 86.78 12.25L86.78 12.25L86.78 12.25Q86.43 12.46 86.20 12.65L86.20 12.65L86.20 12.65Q85.98 12.83 85.98 13.01L85.98 13.01L85.98 13.01Q85.98 13.19 86.05 13.32L86.05 13.32L86.05 13.32Q86.13 13.45 86.26 13.55L86.26 13.55L86.26 13.55Q86.48 13.73 86.73 13.83L86.73 13.83L86.73 13.83Q86.98 13.92 87.29 14.03L87.29 14.03L87.29 14.03Q87.60 14.14 87.96 14.29L87.96 14.29L87.96 14.29Q88.31 14.44 88.68 14.61L88.68 14.61L88.68 14.61Q89.05 14.79 89.35 15.00L89.35 15.00L89.35 15.00Q90.02 15.47 90.02 15.95L90.02 15.95L90.02 15.95Q90.02 16.43 89.31 16.98L89.31 16.98L89.31 16.98Q88.25 17.82 86.56 18.14L86.56 18.14L86.56 18.14Q86.02 18.24 85.66 18.24L85.66 18.24L85.66 18.24Q85.31 18.24 85.05 18.21L85.05 18.21L85.05 18.21Q84.79 18.19 84.51 18.14L84.51 18.14L84.51 18.14Q84.23 18.09 83.97 18.01L83.97 18.01L83.97 18.01Q83.70 17.92 83.49 17.80L83.49 17.80L83.49 17.80Q83.02 17.53 83.02 17.18L83.02 17.18L83.02 17.18Q83.02 16.83 83.15 16.57L83.15 16.57L83.15 16.57Q83.28 16.31 83.49 16.09L83.49 16.09L83.49 16.09Q83.70 15.87 83.97 15.70L83.97 15.70L83.97 15.70Q84.23 15.52 84.51 15.36L84.51 15.36L84.51 15.36Q84.78 15.21 85.03 15.08L85.03 15.08L85.03 15.08Q85.29 14.94 85.47 14.82L85.47 14.82L85.47 14.82Q84.66 14.49 84.66 14.03L84.66 14.03L84.66 14.03Q84.66 13.57 85.66 12.90L85.66 12.90L85.66 12.90Q85.90 12.74 86.04 12.63L86.04 12.63L86.04 12.63Q85.75 12.72 85.38 12.72L85.38 12.72L85.38 12.72Q85.02 12.72 84.68 12.53L84.68 12.53L84.68 12.53Q84.33 12.35 84.10 12.04L84.10 12.04L84.10 12.04Q83.61 11.42 83.61 10.56L83.61 10.56L83.61 10.56Q83.61 9.70 84.25 8.93L84.25 8.93L84.25 8.93Q84.82 8.25 85.76 7.81L85.76 7.81L85.76 7.81Q86.66 7.39 87.50 7.39L87.50 7.39ZM85.12 8.59L85.12 8.59L85.12 8.59Q84.94 8.86 84.94 9.47L84.94 9.47L84.94 9.47Q84.94 10.08 85.05 10.47L85.05 10.47L85.05 10.47Q85.16 10.86 85.39 11.16L85.39 11.16L85.39 11.16Q85.90 11.81 86.82 11.81L86.82 11.81L86.82 11.81Q87.34 11.81 87.58 11.29L87.58 11.29L87.58 11.29Q87.75 10.92 87.75 10.41L87.75 10.41L87.75 10.41Q87.75 9.44 87.33 8.88L87.33 8.88L87.33 8.88Q86.91 8.33 86.11 8.33L86.11 8.33L86.11 8.33Q85.31 8.33 85.12 8.59ZM88.33 17.09L88.33 17.09L88.33 17.09Q88.50 16.99 88.58 16.86L88.58 16.86L88.58 16.86Q88.65 16.72 88.65 16.50L88.65 16.50L88.65 16.50Q88.65 16.28 88.40 16.05L88.40 16.05L88.40 16.05Q88.14 15.83 87.74 15.64L87.74 15.64L87.74 15.64Q87.33 15.46 85.77 14.93L85.77 14.93L85.77 14.93Q85.14 15.20 84.90 15.40L84.90 15.40L84.90 15.40Q84.39 15.83 84.39 16.36L84.39 16.36L84.39 16.36Q84.39 16.76 86.27 17.16L86.27 17.16L86.27 17.16Q86.93 17.30 87.26 17.30L87.26 17.30L87.26 17.30Q87.59 17.30 87.88 17.25L87.88 17.25L87.88 17.25Q88.16 17.19 88.33 17.09ZM95.31 12.82L95.31 12.82L95.31 12.82Q94.38 13.86 92.99 14.12L92.99 14.12L92.99 14.12Q92.67 14.18 92.20 14.18L92.20 14.18L92.20 14.18Q91.72 14.18 91.31 13.91L91.31 13.91L91.31 13.91Q90.89 13.65 90.62 13.23L90.62 13.23L90.62 13.23Q90.12 12.43 90.12 11.27L90.12 11.27L90.12 11.27Q90.12 10.50 90.71 9.57L90.71 9.57L90.71 9.57Q91.28 8.65 92.11 8.04L92.11 8.04L92.11 8.04Q93.00 7.38 93.79 7.38L93.79 7.38L93.79 7.38Q94.20 7.38 94.48 7.68L94.48 7.68L94.48 7.68Q94.74 7.98 94.74 8.35L94.74 8.35L94.74 8.35Q94.74 8.73 94.58 9.05L94.58 9.05L94.58 9.05Q94.41 9.37 94.15 9.67L94.15 9.67L94.15 9.67Q93.88 9.97 93.55 10.24L93.55 10.24L93.55 10.24Q93.21 10.52 92.85 10.76L92.85 10.76L92.85 10.76Q92.35 11.10 91.59 11.53L91.59 11.53L91.59 11.53Q91.81 12.36 92.37 12.81L92.37 12.81L92.37 12.81Q92.92 13.25 93.80 13.25L93.80 13.25L93.80 13.25Q94.53 13.25 95.31 12.82ZM93.25 10.08L93.25 10.08L93.25 10.08Q93.43 9.78 93.43 9.50L93.43 9.50L93.43 9.50Q93.43 9.22 93.37 9.03L93.37 9.03L93.37 9.03Q93.31 8.83 93.19 8.68L93.19 8.68L93.19 8.68Q92.93 8.34 92.50 8.34L92.50 8.34L92.50 8.34Q91.46 8.34 91.46 10.46L91.46 10.46L91.46 10.46Q91.46 10.83 91.53 11.20L91.53 11.20L91.53 11.20Q92.73 10.87 93.25 10.08Z"></path></g><defs data-v-fde0c5aa=""><linearGradient data-v-fde0c5aa="" gradientTransform="rotate(25)" id="4e8978c5-ed8d-4d3c-aeb9-3a47a796a3a9" x1="0%" y1="0%" x2="100%" y2="0%"><stop data-v-fde0c5aa="" offset="0%" stop-color="#4F7E48" stop-opacity="1"></stop><stop data-v-fde0c5aa="" offset="100%" stop-color="#CAE6A5" stop-opacity="1"></stop></linearGradient></defs><g data-v-fde0c5aa="" id="a048219b-f788-49e3-be47-fab3eb7e7bd9" stroke="none" fill="url(#4e8978c5-ed8d-4d3c-aeb9-3a47a796a3a9)" transform="matrix(2.7355054110571193,0,0,2.7355054110571193,106.2319134230861,75.34787013462913)"><path d="M2.83 18.247l26.34-9.124L2.83 0zM29.17 32V13.753L2.83 22.877z"></path></g><!----></svg>